<svg xmlns="http://www.w3.org/2000/svg">
  <symbol id="start" viewBox="0 0 24 24">
    <path d="M3.5 5.5c2.8-.8 5.6-.2 8.5 1.7v12c-2.9-1.9-5.7-2.4-8.5-1.5zM20.5 5.5c-2.8-.8-5.6-.2-8.5 1.7v12c2.9-1.9 5.7-2.4 8.5-1.5z" />
    <path d="M6.5 4.2v10.2M17.5 4.2v10.2" />
  </symbol>
  <symbol id="era" viewBox="0 0 24 24">
    <path d="m12 2.8 8.5 4.7v9L12 21.2l-8.5-4.7v-9z" />
    <path d="m3.8 7.7 8.2 4.6 8.2-4.6M12 12.3v8.5" />
  </symbol>
  <symbol id="resources" viewBox="0 0 24 24">
    <ellipse cx="12" cy="5.2" rx="8.2" ry="3.1" />
    <path d="M3.8 5.2v6c0 1.7 3.7 3.1 8.2 3.1s8.2-1.4 8.2-3.1v-6M3.8 11.2v6c0 1.7 3.7 3.1 8.2 3.1s8.2-1.4 8.2-3.1v-6" />
  </symbol>
  <symbol id="tools" viewBox="0 0 24 24">
    <path d="M14.2 5.1a4.4 4.4 0 0 0-5.4 5.5l-5.5 5.5a2.5 2.5 0 1 0 3.6 3.6l5.5-5.5a4.4 4.4 0 0 0 5.5-5.4l-2.8 2.8-2.7-.7-.7-2.7z" />
  </symbol>
  <symbol id="reference" viewBox="0 0 24 24">
    <path d="M7 3.5h8.5a3 3 0 0 1 3 3v13H8a3.5 3.5 0 0 1 0-7h10.5M7 3.5v9M8 16h7" />
  </symbol>
  <symbol id="llm" viewBox="0 0 24 24">
    <rect x="5" y="5" width="14" height="14" rx="3" />
    <path d="M9 9.5h6M9 12.5h4M8 2.5v2M12 2.5v2M16 2.5v2M8 19.5v2M12 19.5v2M16 19.5v2M2.5 8h2M2.5 12h2M2.5 16h2M19.5 8h2M19.5 12h2M19.5 16h2" />
  </symbol>
  <symbol id="erm-basics" viewBox="0 0 24 24">
    <path d="m8.2 5-5 7 5 7M15.8 5l5 7-5 7M13.8 3.5l-3.6 17" />
  </symbol>
  <symbol id="erm-reference" viewBox="0 0 24 24">
    <circle cx="12" cy="12" r="8.8" />
    <path d="m15.8 8.2-2.2 5.4-5.4 2.2 2.2-5.4z" />
  </symbol>
  <symbol id="erm-framework" viewBox="0 0 24 24">
    <rect x="9" y="2.8" width="6" height="6" rx="1" />
    <rect x="2.8" y="15.2" width="6" height="6" rx="1" />
    <rect x="15.2" y="15.2" width="6" height="6" rx="1" />
    <path d="M12 8.8v3.1M5.8 15.2v-3.3h12.4v3.3" />
  </symbol>
  <symbol id="erm-practice" viewBox="0 0 24 24">
    <path d="M9 3h6M10 3v5l-5.3 9.2A2.5 2.5 0 0 0 6.9 21h10.2a2.5 2.5 0 0 0 2.2-3.8L14 8V3M7.6 15h8.8M9.5 12.1h5" />
  </symbol>
  <symbol id="plugin-development" viewBox="0 0 24 24">
    <path d="M8 3v5M16 3v5M6 8h12v2a6 6 0 0 1-6 6v5M9 12h6" />
  </symbol>
  <symbol id="nh3api" viewBox="0 0 24 24">
    <path d="M9 4H6.5A1.5 1.5 0 0 0 5 5.5v4L3 12l2 2.5v4A1.5 1.5 0 0 0 6.5 20H9M15 4h2.5A1.5 1.5 0 0 1 19 5.5v4l2 2.5-2 2.5v4a1.5 1.5 0 0 1-1.5 1.5H15M14 8l-4 8" />
  </symbol>
</svg>
